{
	"asset":{
		"generator":"Khronos glTF Blender I/O v4.4.56",
		"version":"2.0"
	},
	"scene":0,
	"scenes":[
		{
			"name":"Scene",
			"nodes":[
				0
			]
		}
	],
	"nodes":[
		{
			"mesh":0,
			"name":"Corvette_02",
			"rotation":[
				0.5,
				0.5,
				-0.5,
				0.5
			],
			"scale":[
				0.009999999776482582,
				0.009999999776482582,
				0.009999999776482582
			],
			"translation":[
				0,
				-2.2854294776916504,
				6.873881816864014
			]
		}
	],
	"materials":[
		{
			"doubleSided":true,
			"name":"Spaceship_mat.001",
			"pbrMetallicRoughness":{
				"baseColorTexture":{
					"index":0
				},
				"metallicFactor":0
			}
		}
	],
	"meshes":[
		{
			"name":"Mesh.028",
			"primitives":[
				{
					"attributes":{
						"POSITION":0,
						"NORMAL":1,
						"TEXCOORD_0":2
					},
					"indices":3,
					"material":0
				}
			]
		}
	],
	"textures":[
		{
			"sampler":0,
			"source":0
		}
	],
	"images":[
		{
			"mimeType":"image/png",
			"name":"T_Spase_64",
			"uri":"T_Spase_64.png"
		}
	],
	"accessors":[
		{
			"bufferView":0,
			"componentType":5126,
			"count":5346,
			"max":[
				2509.8935546875,
				647.1072998046875,
				71.34979248046875
			],
			"min":[
				-879.5374145507812,
				-647.17822265625,
				-901.4331665039062
			],
			"type":"VEC3"
		},
		{
			"bufferView":1,
			"componentType":5126,
			"count":5346,
			"type":"VEC3"
		},
		{
			"bufferView":2,
			"componentType":5126,
			"count":5346,
			"type":"VEC2"
		},
		{
			"bufferView":3,
			"componentType":5123,
			"count":21444,
			"type":"SCALAR"
		}
	],
	"bufferViews":[
		{
			"buffer":0,
			"byteLength":64152,
			"byteOffset":0,
			"target":34962
		},
		{
			"buffer":0,
			"byteLength":64152,
			"byteOffset":64152,
			"target":34962
		},
		{
			"buffer":0,
			"byteLength":42768,
			"byteOffset":128304,
			"target":34962
		},
		{
			"buffer":0,
			"byteLength":42888,
			"byteOffset":171072,
			"target":34963
		}
	],
	"samplers":[
		{
			"magFilter":9729,
			"minFilter":9987
		}
	],
	"buffers":[
		{
			"byteLength":213960,
			"uri":"corvette_2.bin"
		}
	]
}
